<svg xmlns="http://www.w3.org/2000/svg">
	<defs>
		<symbol id="dashboard" viewBox="0 0 24 24">
			<path d="M0 0h24v24H0z" fill="none" />
			<path
				d="M3 13h8V3H3v10zm0 8h8v-6H3v6zm10 0h8V11h-8v10zm0-18v6h8V3h-8z"
			/>
		</symbol>
		<symbol id="data" viewBox="0 0 24 24">
			<path d="M0 0h24v24H0z" fill="none" />
			<path
				d="M14 2H6c-1.1 0-1.99.9-1.99 2L4 20c0 1.1.89 2 1.99 2H18c1.1 0 2-.9 2-2V8l-6-6zm2 16H8v-2h8v2zm0-4H8v-2h8v2zm-3-5V3.5L18.5 9H13z"
			/>
		</symbol>
		<symbol id="open" viewBox="0 0 24 24">
			<path d="M0 0h24v24H0z" fill="none" />
			<path
				d="M19 19H5V5h7V3H5c-1.11 0-2 .9-2 2v14c0 1.1.89 2 2 2h14c1.1 0 2-.9 2-2v-7h-2v7zM14 3v2h3.59l-9.83 9.83 1.41 1.41L19 6.41V10h2V3h-7z"
			/>
		</symbol>
	</defs>
</svg>
